<svg width="609" height="383" viewBox="0 0 609 383" fill="none" xmlns="http://www.w3.org/2000/svg">
<path d="M609 231.26C609 313.133 538.969 382.877 456.872 382.877C439.626 382.936 422.498 380.034 406.241 374.298C389.338 368.273 376.79 358.32 362.189 348.614C360.212 347.318 358.197 346.022 356.156 344.882C340.551 335.817 322.812 331.041 304.751 331.041C286.689 331.041 268.95 335.817 253.346 344.882C223.037 362.545 200.114 380.545 163.629 382.722C125.363 385.015 86.473 373.08 56.6715 348.899C9.1868 310.373 -7.41723 245.735 2.97168 187.161C14.7778 120.644 60.4422 71.6076 119.642 41.5821C141.3 30.743 164.011 22.1369 187.424 15.8978C316.953 -19.3889 505.202 -1.25958 581.188 124.635C591.665 142.1 599.606 160.957 604.774 180.643C607.593 197.368 609.007 214.299 609 231.26Z" fill="#CCCCCC"/>
</svg>
